{
  "title": "The Adjustment Bureau (2011) DVDRip XviD-MAX",
  "uid": 6457821,
  "size": 1591063883,
  "categoryP": "video",
  "categoryS": "movies",
  "magnet": "?xt=urn:btih:dfca56d5e649d4dff8417785d87a8e9f34771c4a&amp;dn=The+Adjustment+Bureau+%282011%29+DVDRip+XviD-MAX&amp;tr=udp%3A%2F%2Ftracker.openbittorrent.com%3A80&amp;tr=udp%3A%2F%2Fopen.demonii.com%3A1337&amp;tr=udp%3A%2F%2Ftracker.coppersurfer.tk%3A6969&amp;tr=udp%3A%2F%2Fexodus.desync.com%3A6969",
  "seeders": 65,
  "leechers": 14,
  "uploader": "extremezone",
  "files": -1,
  "time": 1307642401,
  "description": " &lt;a href=&quot;http://leetleech.org/images/71294291872438195111.jpg&quot; rel=&quot;nofollow&quot; target=&quot;_NEW&quot;&gt;http://leetleech.org/images/71294291872438195111.jpg&lt;/a&gt;\n\nScreens:\n &lt;a href=&quot;\nhttp://leetleech.org/images/72452218785861464453.jpg&quot; rel=&quot;nofollow&quot; target=&quot;_NEW&quot;&gt;\nhttp://leetleech.org/images/72452218785861464453.jpg&lt;/a&gt;\n &lt;a href=&quot;\nhttp://leetleech.org/images/44455251717793435858.jpg&quot; rel=&quot;nofollow&quot; target=&quot;_NEW&quot;&gt;\nhttp://leetleech.org/images/44455251717793435858.jpg&lt;/a&gt;\n &lt;a href=&quot;\nhttp://leetleech.org/images/98883997855592699527.jpg&quot; rel=&quot;nofollow&quot; target=&quot;_NEW&quot;&gt;\nhttp://leetleech.org/images/98883997855592699527.jpg&lt;/a&gt;\n &lt;a href=&quot;\nhttp://leetleech.org/images/21230314931102647914.jpg&quot; rel=&quot;nofollow&quot; target=&quot;_NEW&quot;&gt;\nhttp://leetleech.org/images/21230314931102647914.jpg&lt;/a&gt;\n\nAlternative:\n &lt;a href=&quot;\nhttp://www.postimg.com/image/39000/photo-38491.jpg&quot; rel=&quot;nofollow&quot; target=&quot;_NEW&quot;&gt;\nhttp://www.postimg.com/image/39000/photo-38491.jpg&lt;/a&gt;\n &lt;a href=&quot;\nhttp://www.postimg.com/image/39000/photo-38492.jpg&quot; rel=&quot;nofollow&quot; target=&quot;_NEW&quot;&gt;\nhttp://www.postimg.com/image/39000/photo-38492.jpg&lt;/a&gt;\n &lt;a href=&quot;\nhttp://www.postimg.com/image/39000/photo-38493.jpg&quot; rel=&quot;nofollow&quot; target=&quot;_NEW&quot;&gt;\nhttp://www.postimg.com/image/39000/photo-38493.jpg&lt;/a&gt;\n &lt;a href=&quot;\nhttp://www.postimg.com/image/39000/photo-38494.jpg&quot; rel=&quot;nofollow&quot; target=&quot;_NEW&quot;&gt;\nhttp://www.postimg.com/image/39000/photo-38494.jpg&lt;/a&gt;\n\nScreenCaps:\n &lt;a href=&quot;\nhttp://www.postimg.com/image/39000/photo-38495.jpg&quot; rel=&quot;nofollow&quot; target=&quot;_NEW&quot;&gt;\nhttp://www.postimg.com/image/39000/photo-38495.jpg&lt;/a&gt;\n\nThe Adjustment Bureau (2011) DVDRip XviD-MAX\nFormat                           : AVI\nFormat/Info                      : Audio Video Interleave\nFormat profile                   : OpenDML\nFile size                        : 1.47 GiB\nDuration                         : 1h 45mn\nOverall bit rate                 : 1 990 Kbps\nWriting application              : VirtualDubMod 1.5.10.2 (build 2542/release)\nWriting library                  : VirtualDubMod build 2542/release\nOriginal source form             : MAX TORRENTZ\nCopyright                        : SIGISMUNT\n\nVideo\nID                               : 0\nFormat                           : MPEG-4 Visual\nFormat profile                   : AdvancedSimple@L5\nFormat settings, BVOP            : Yes\nFormat settings, QPel            : No\nFormat settings, GMC             : No warppoints\nFormat settings, Matrix          : Default (H.263)\nCodec ID                         : XVID\nCodec ID/Hint                    : XviD\nDuration                         : 1h 45mn\nBit rate                         : 1 537 Kbps\nWidth                            : 720 pixels\nHeight                           : 384 pixels\nDisplay aspect ratio             : 1.875\nFrame rate                       : 23.976 fps\nResolution                       : 24 bits\nColorimetry                      : 4:2:0\nScan type                        : Progressive\nBits/(Pixel*Frame)               : 0.232\nStream size                      : 1.14 GiB (77%)\nWriting library                  : XviD 1.2.1 (UTC 2008-12-04)\n\nAudio\nID                               : 1\nFormat                           : AC-3\nFormat/Info                      : Audio Coding 3\nCodec ID                         : 2000\nDuration                         : 1h 45mn\nBit rate mode                    : Constant\nBit rate                         : 448 Kbps\nChannel(s)                       : 6 channels\nChannel positions                : Front: L C R, Surround: L R, LFE\nSampling rate                    : 48.0 KHz\nStream size                      : 339 MiB (23%)\nAlignment                        : Aligned on interleaves\nInterleave, duration             : 64 ms (1.53 video frames)\nInterleave, preload duration     : 192 ms\n  &lt;a href=&quot;\nhttp://www.imdb.com/title/tt1385826/&quot; rel=&quot;nofollow&quot; target=&quot;_NEW&quot;&gt;\nhttp://www.imdb.com/title/tt1385826/&lt;/a&gt;\n\nSource: DVD (perfect a/v/synn quality,sample included)\nThanks for waiting a better quality than 700mb DEFACED as usual bad encodes\nThis release is not seedbox supported , please seed it to the MAX\n\nThe Adjustment Bureau (2011) DVDRip XviD-MAX Torrent Free Download\n &lt;a href=&quot;\nhttp://thepiratebay.se/user/extremezone/0/7&quot; rel=&quot;nofollow&quot; target=&quot;_NEW&quot;&gt;\nhttp://thepiratebay.se/user/extremezone/0/7&lt;/a&gt;\n\nHow To Get Your Maxspeed (uTorrent)\n\nTorrent Client - Preferences - Bandwidth - Number of connections - Set aprox. 500 for each \nTorrent Client - Preferences - BiTorrent - Protocol Encryption - Forced\nBandwidth Allocation - High (Set download/upload limit - Unlimited)\nStop Other Active Torrents - Start downloading and wait for connections.\nEnjoy and Seed for at least 1:1 ratio. Don't forget to say thanks/leave reviews.\nBefore downloading you should check/google search sample &quot;release name&quot;&quot;sample&quot;.\nGreets to all actual/future p2p/scene QUALITY groups and affiliate websites.\nDon't trust IMDb robot or bad ratings,always watch some trailers first.\nIgnore stupid comments/fake/mislabeled/no-DVDrips/CAM/TS/RAR uploads.\nPlease spread this release/torrent to your friends/forums/etc.\nIf you need translation subs visit some subtitles sites.\nReport if you see online streaming or other spam links.\nRecommended movie player VLC PLAYER.",
  "parsed": {
    "xt": "urn:btih:dfca56d5e649d4dff8417785d87a8e9f34771c4a",
    "dn": "The Adjustment Bureau (2011) DVDRip XviD-MAX",
    "tr": [
      "udp://exodus.desync.com:6969",
      "udp://open.demonii.com:1337",
      "udp://tracker.coppersurfer.tk:6969",
      "udp://tracker.openbittorrent.com:80"
    ],
    "infoHash": "dfca56d5e649d4dff8417785d87a8e9f34771c4a",
    "infoHashBuffer": {
      "type": "Buffer",
      "data": [
        223,
        202,
        86,
        213,
        230,
        73,
        212,
        223,
        248,
        65,
        119,
        133,
        216,
        122,
        142,
        159,
        52,
        119,
        28,
        74
      ]
    },
    "name": "The Adjustment Bureau (2011) DVDRip XviD-MAX",
    "announce": [
      "udp://exodus.desync.com:6969",
      "udp://open.demonii.com:1337",
      "udp://tracker.coppersurfer.tk:6969",
      "udp://tracker.openbittorrent.com:80"
    ],
    "urlList": []
  },
  "previous": 4,
  "peers": 4,
  "last_updated": "2016-12-27T15:14:50.162Z"
}